<svg xmlns="http://www.w3.org/2000/svg" viewBox="0 0 1024 1024">
  <path fill="#FFFAF5" d="M1024,512c0,232.6-188.6,421.2-421.2,421.2S181.6,744.6,181.6,512S370.2,90.8,602.8,90.8 S1024,279.4,1024,512z M912,512c0-220.4-178.8-399.2-399.2-399.2S113.6,291.6,113.6,512S292.4,911.2,512.8,911.2 S912,732.4,912,512z"/>
  
  <path fill="#9B59B6" d="M366,303l20.6-54c1.6-4.2,7.3-4.2,8.9,0l20.6,54c2.6,6.8,8,12.2,14.8,14.8l54,20.6 c4.2,1.6,4.2,7.3,0,8.9l-54,20.6c-6.8,2.6-12.2,8-14.8,14.8l-20.6,54c-1.6,4.2-7.3,4.2-8.9,0l-20.6-54 c-2.6-6.8-8-12.2-14.8-14.8l-54-20.6c-4.2-1.6-4.2-7.3,0-8.9l54-20.6C358,315.2,363.4,309.8,366,303z"/>
  <path fill="#9B59B6" d="M441.1,264.4l10.3-27c0.8-2.1,3.6-2.1,4.4,0l10.3,27c1.3,3.4,4,6.1,7.4,7.4l27,10.3 c2.1,0.8,2.1,3.6,0,4.4l-27,10.3c-3.4,1.3-6.1,4-7.4,7.4l-10.3,27c-0.8,2.1-3.6,2.1-4.4,0l-10.3-27c-1.3-3.4-4-6.1-7.4-7.4l-27-10.3c-2.1-0.8-2.1-3.6,0-4.4l27-10.3C437.1,270.5,439.8,267.8,441.1,264.4z"/>
  
  <path fill="#FF8C69" d="M638.5,780.1H387.1c-37.5,0-67.9-30.4-67.9-67.9V568.7c0-14.7,4.8-28.9,13.7-40.5 l111.9-147.2c18.9-24.8,56-24.8,74.9,0l111.9,147.2c8.9,11.6,13.7,25.8,13.7,40.5v143.5 C706.4,749.7,676,780.1,638.5,780.1z M430.3,531.5L430.3,531.5c-4.4,5.8-6.8,12.9-6.8,20.2v160.5 c0,6.7,5.4,12.1,12.1,12.1h251.4c6.7,0,12.1-5.4,12.1-12.1V551.7c0-7.3-2.4-14.3-6.8-20.2L537.3,433.1 c-8.9-11.6-26.1-11.6-35,0L430.3,531.5z"/>
  
  <path fill="#2ECC71" d="M754.2,513.8c-6.8-8.9-19.5-10.5-28.4-3.7L563.3,633.2c-8.9,6.8-10.5,19.5-3.7,28.4 c3.4,4.5,8.6,7.1,14.1,7.1c5.1,0,10.2-2.1,14.3-6l162.5-123.2C759.5,532.7,761,522.7,754.2,513.8z"/>
  <path fill="#2ECC71" d="M254.7,421.9c-6.8,8.9-5.3,21.6,3.7,28.4l186.5,141.4c4,3.1,8.8,4.7,13.7,4.7 c6.4,0,12.7-2.7,17.1-8c6.8-8.9,5.3-21.6-3.7-28.4L285.5,418.5C276.6,411.7,263.9,413.3,254.7,421.9z"/>
</svg>